<mxfile host="65bd71144e">
    <diagram id="Du-ULjT9kFRAmqpEAsSb" name="Page-1">
        <mxGraphModel dx="794" dy="392" grid="1" gridSize="10" guides="1" tooltips="1" connect="1" arrows="1" fold="1" page="1" pageScale="1" pageWidth="850" pageHeight="1100" math="0" shadow="0">
            <root>
                <mxCell id="0"/>
                <mxCell id="1" parent="0"/>
                <mxCell id="3" style="edgeStyle=none;html=1;fontFamily=Verdana;" edge="1" parent="1" source="2">
                    <mxGeometry relative="1" as="geometry">
                        <mxPoint x="240" y="290" as="targetPoint"/>
                    </mxGeometry>
                </mxCell>
                <mxCell id="2" value="1.Dashbord&amp;nbsp;" style="whiteSpace=wrap;html=1;fontFamily=Verdana;" vertex="1" parent="1">
                    <mxGeometry x="160" y="120" width="160" height="80" as="geometry"/>
                </mxCell>
            </root>
        </mxGraphModel>
    </diagram>
</mxfile>